<svg version="1.1" id="Layer_1" xmlns="http://www.w3.org/2000/svg" xmlns:xlink="http://www.w3.org/1999/xlink" x="0px" y="0px"
	 width="100%" viewBox="0 0 1280 717" enable-background="new 0 0 1280 717" xml:space="preserve">
<path fill="#15E600" opacity="1.000000" stroke="none" 
	d="
M287.153809,553.033813 
	C287.110809,529.322449 287.067810,505.611023 287.547058,481.445648 
	C299.648163,480.991669 311.226990,480.991669 323.190979,480.991669 
	C323.190979,457.273102 323.190979,434.340576 323.190979,410.834961 
	C334.974518,410.834961 346.365601,410.834961 358.139160,410.834961 
	C358.139160,398.325470 358.139160,386.390198 358.139160,373.886780 
	C381.588196,373.886780 404.641541,373.886780 428.087280,373.886780 
	C428.087280,363.044464 428.087280,352.777344 428.087280,342.320618 
	C440.206024,342.320618 451.920258,342.320618 464.212250,342.320618 
	C464.212250,353.023071 464.212250,363.415680 464.212250,374.391663 
	C476.120575,374.391663 487.451416,374.391663 499.810669,374.391663 
	C499.810669,351.185486 499.810669,328.173004 499.810669,304.777100 
	C523.759155,304.777100 546.691589,304.777100 570.196960,304.777100 
	C570.196960,292.992493 570.196960,281.601501 570.196960,270.500000 
	C605.780640,270.500000 640.784607,270.500000 675.702637,270.500000 
	C675.702637,259.269562 675.702637,248.338684 675.702637,236.999847 
	C665.612610,236.999847 655.810059,236.835785 646.017700,237.078964 
	C641.987122,237.179077 640.895691,235.722794 640.928528,231.860596 
	C641.087280,213.195343 641.000061,194.527969 641.000000,175.861359 
	C641.000000,172.737366 641.000000,169.613373 641.000000,165.927856 
	C664.546814,165.927856 687.599609,165.927856 710.603760,165.927856 
	C710.603760,154.290604 710.603760,143.237808 710.603760,132.281616 
	C704.438232,131.835022 698.678528,131.138138 692.909363,131.047409 
	C664.972534,130.607971 637.033081,130.334747 609.094849,129.982376 
	C608.154175,129.970505 607.216187,129.742599 606.855164,129.693695 
	C606.855164,106.635300 606.855164,83.961960 606.855164,60.895443 
	C618.972656,60.895443 630.240906,60.895443 642.078735,60.895443 
	C642.078735,49.113705 642.078735,37.723629 642.078735,26.404778 
	C654.379028,26.404778 666.095032,26.404778 677.500000,26.404778 
	C677.500000,49.480251 677.500000,72.150894 677.500000,94.686234 
	C688.763855,94.686234 699.695435,94.686234 711.198547,94.686234 
	C711.198547,82.991684 711.198547,71.598831 711.198547,60.287838 
	C734.709717,60.287838 757.639771,60.287838 781.581604,60.287838 
	C781.581604,83.919083 781.581604,107.261444 781.581604,130.626404 
	C793.648254,130.626404 804.696899,130.626404 816.141479,130.626404 
	C816.141479,118.656273 816.141479,107.055252 816.141479,95.347031 
	C828.262207,95.347031 839.977417,95.347031 851.808350,95.347031 
	C852.341553,107.367607 852.859802,119.049644 853.394531,131.104736 
	C864.981567,131.104736 876.254028,131.104736 888.189331,131.104736 
	C887.765564,135.760361 887.089233,139.963058 887.052612,144.171310 
	C886.919373,159.503433 887.066772,174.837921 886.953308,190.170364 
	C886.924683,194.035660 886.319458,197.896698 885.949097,202.101166 
	C874.365784,202.101166 863.430237,202.101166 851.771057,202.101166 
	C852.280090,213.528595 852.769897,224.524155 853.285339,236.095947 
	C864.902466,236.095947 876.293640,236.095947 887.586792,236.095947 
	C887.586792,295.056305 887.586792,353.436890 887.586792,412.220581 
	C876.241943,412.220581 865.307617,412.220581 853.695129,412.220581 
	C853.695129,423.613281 853.695129,434.608673 853.695129,446.198486 
	C865.001160,446.198486 876.395569,446.198486 887.005554,446.198486 
	C887.005554,474.705383 887.005920,502.630859 887.005371,530.556335 
	C887.005066,547.722961 886.928589,564.890503 887.149658,582.054260 
	C887.166565,583.367981 889.249084,585.747314 890.426270,585.782227 
	C900.512390,586.081421 910.611084,585.953918 921.094360,585.953918 
	C921.094360,574.038025 921.094360,562.769775 921.094360,550.966125 
	C944.944702,550.966125 968.395447,550.966125 991.846313,550.966125 
	C991.889282,574.344238 991.932251,597.722290 991.453003,621.554382 
	C979.710938,622.008362 968.491089,622.008362 956.748718,622.008362 
	C956.748718,634.077820 956.748718,645.438660 956.748718,656.500000 
	C944.904236,656.500000 933.597351,656.500000 921.033875,656.500000 
	C921.033875,668.758545 921.033875,680.802368 921.033875,692.846313 
	C913.383301,692.897522 905.732666,692.992615 898.082092,692.993103 
	C836.021240,692.997131 773.960449,692.983521 711.445618,692.453003 
	C710.991638,680.015686 710.991638,668.100708 710.991638,655.800598 
	C698.930298,655.800598 687.662048,655.800598 675.826782,655.800598 
	C675.826782,644.016907 675.826782,632.625977 675.826782,621.275024 
	C663.981384,621.275024 652.717773,621.275024 640.879150,621.275024 
	C640.879150,632.929260 640.879150,644.319641 640.879150,656.094727 
	C628.703979,656.094727 617.102661,656.094727 605.033875,656.094727 
	C605.033875,668.609375 605.033875,680.727844 605.033875,692.846252 
	C595.885620,692.897522 586.737366,692.992126 577.589111,692.992981 
	C518.355469,692.998657 459.121796,692.983948 399.186951,692.582092 
	C396.736908,692.025635 394.988007,691.863037 393.344635,691.710205 
	C392.793518,679.965454 392.261108,668.619507 391.703125,656.728394 
	C379.916351,656.728394 368.534271,656.728394 356.776855,656.728394 
	C356.776855,644.897766 356.776855,633.636719 356.776855,621.817383 
	C345.004120,621.817383 333.619568,621.817383 321.870056,621.817383 
	C321.870056,598.662170 321.870056,576.075012 321.870056,553.033813 
	C310.045441,553.033813 298.599609,553.033813 287.153809,553.033813 
M536.000000,474.500000 
	C536.000000,499.526398 536.000000,524.552795 536.000000,550.156372 
	C546.968140,550.156372 558.353577,550.156372 570.115417,550.156372 
	C570.115417,561.986267 570.115417,573.249390 570.115417,584.684570 
	C593.882385,584.684570 617.252808,584.684570 641.311035,584.684570 
	C641.311035,514.729370 641.311035,445.089630 641.311035,374.724915 
	C630.122803,374.724915 618.791870,374.724915 606.439697,374.724915 
	C606.439697,386.569244 606.439697,398.577271 606.439697,411.127197 
	C594.061523,411.127197 582.676514,411.127197 570.736572,411.127197 
	C570.736572,423.077148 570.736572,434.462097 570.736572,446.221069 
	C558.904114,446.221069 547.641235,446.221069 536.000000,446.221069 
	C536.000000,455.575165 536.000000,464.537567 536.000000,474.500000 
M763.500366,132.000000 
	C758.077881,132.000000 752.655396,132.000000 747.863403,132.000000 
	C747.863403,155.410080 747.863403,178.065918 747.863403,200.747803 
	C759.318787,200.747803 769.908875,200.747803 780.692261,200.747803 
	C780.692261,177.793961 780.692261,155.093155 780.692261,132.000000 
	C775.093933,132.000000 769.796631,132.000000 763.500366,132.000000 
M713.000000,468.491608 
	C713.000000,461.747803 713.000000,455.003998 713.000000,448.405975 
	C700.575195,448.405975 688.880066,448.405975 677.274719,448.405975 
	C677.274719,459.724731 677.274719,470.635590 677.274719,481.682007 
	C689.244202,481.682007 700.937073,481.682007 713.000000,481.682007 
	C713.000000,477.411133 713.000000,473.449585 713.000000,468.491608 
M713.000000,390.504944 
	C713.000000,397.257568 713.000000,404.010193 713.000000,410.739075 
	C725.004761,410.739075 736.260803,410.739075 747.702393,410.739075 
	C747.702393,399.419525 747.702393,388.362366 747.702393,376.653564 
	C736.071289,376.653564 724.736206,376.653564 713.000000,376.653564 
	C713.000000,380.910828 713.000000,385.209625 713.000000,390.504944 
M746.116272,96.150612 
	C734.859436,96.150612 723.602661,96.150612 712.395386,96.150612 
	C712.395386,108.035843 712.395386,119.413704 712.395386,130.712830 
	C723.719116,130.712830 734.645325,130.712830 746.809326,130.712830 
	C746.809326,119.215309 746.809326,107.990509 746.116272,96.150612 
M819.765320,448.029449 
	C819.180725,448.831268 818.095886,449.627777 818.087280,450.435730 
	C817.973816,461.131073 818.011597,471.828033 818.011597,482.706543 
	C830.199219,482.706543 840.889343,482.706543 851.670471,482.706543 
	C851.670471,470.721985 851.670471,459.033661 851.670471,448.004364 
	C841.129456,448.004364 830.917969,448.004364 819.765320,448.029449 
M534.150940,444.831085 
	C534.150940,433.687531 534.150940,422.544006 534.150940,411.354614 
	C523.020264,411.354614 511.656677,411.354614 500.403381,411.354614 
	C500.403381,422.745483 500.403381,433.777740 500.403381,444.971893 
	C511.607605,444.971893 522.409241,444.971893 534.150940,444.831085 
M482.498932,480.000000 
	C487.913513,480.000000 493.328125,480.000000 498.592957,480.000000 
	C498.592957,468.240997 498.592957,457.211456 498.592957,446.274231 
	C486.940918,446.274231 475.697784,446.274231 464.318604,446.274231 
	C464.318604,457.577545 464.318604,468.604584 464.318604,480.000000 
	C470.254639,480.000000 475.877319,480.000000 482.498932,480.000000 
M717.623169,271.000000 
	C727.350952,271.000000 737.078796,271.000000 746.732178,271.000000 
	C746.732178,259.291992 746.732178,248.380051 746.732178,237.314148 
	C735.101013,237.314148 723.739502,237.314148 712.190308,237.314148 
	C712.190308,248.538925 712.190308,259.449646 712.190308,270.704529 
	C713.779846,270.809723 715.217590,270.904877 717.623169,271.000000 
M783.000000,348.571808 
	C783.000000,357.638336 783.000000,366.704834 783.000000,375.750397 
	C794.672180,375.750397 805.583130,375.750397 816.705078,375.750397 
	C816.705078,364.139038 816.705078,352.778381 816.705078,341.341370 
	C805.378906,341.341370 794.350342,341.341370 783.000000,341.341370 
	C783.000000,343.651276 783.000000,345.622314 783.000000,348.571808 
M422.377441,445.000000 
	C424.140442,445.000000 425.903442,445.000000 427.603394,445.000000 
	C427.603394,433.288391 427.603394,422.246765 427.603394,411.280334 
	C416.279144,411.280334 405.353821,411.280334 393.717041,411.280334 
	C393.717041,422.553925 393.717041,433.547150 393.717041,445.000000 
	C402.837860,445.000000 412.122284,445.000000 422.377441,445.000000 
M817.000000,222.522705 
	C816.614624,215.810318 816.229187,209.097931 815.842163,202.356766 
	C804.369690,202.356766 793.329346,202.356766 782.419800,202.356766 
	C782.419800,213.758392 782.419800,224.798462 782.419800,235.696091 
	C794.096497,235.696091 805.351501,235.696091 817.000000,235.696091 
	C817.000000,231.438156 817.000000,227.474411 817.000000,222.522705 
M704.410217,236.000000 
	C706.503906,236.000000 708.597534,236.000000 711.337341,236.000000 
	C711.337341,224.329102 711.337341,213.341934 711.337341,202.398254 
	C699.954407,202.398254 688.578186,202.398254 677.286072,202.398254 
	C677.286072,213.722321 677.286072,224.645844 677.286072,236.000000 
	C686.186707,236.000000 694.807495,236.000000 704.410217,236.000000 
M323.000000,493.689026 
	C323.000000,501.078339 323.000000,508.467621 323.000000,515.717407 
	C334.751373,515.717407 345.657166,515.717407 356.681396,515.717407 
	C356.681396,504.075897 356.681396,492.719116 356.681396,480.909454 
	C345.694702,481.398499 335.044159,481.872589 324.380188,482.347260 
	C323.901550,485.951050 323.450897,489.344055 323.000000,493.689026 
M605.000000,333.407166 
	C605.000000,324.403412 605.000000,315.399658 605.000000,306.348480 
	C594.020508,306.348480 582.663086,306.348480 571.368164,306.348480 
	C571.368164,317.401733 571.368164,328.103210 571.368164,339.397522 
	C582.719910,339.397522 593.702087,339.397522 605.000000,339.397522 
	C605.000000,337.660614 605.000000,336.018829 605.000000,333.407166 
M852.000000,329.473846 
	C852.000000,321.734680 852.000000,313.995483 852.000000,306.411133 
	C840.233337,306.411133 829.203308,306.411133 818.279785,306.411133 
	C818.279785,317.735077 818.279785,328.645966 818.279785,339.675293 
	C829.589233,339.675293 840.616760,339.675293 852.000000,339.675293 
	C852.000000,336.394165 852.000000,333.427826 852.000000,329.473846 
M661.495850,340.000000 
	C666.238342,340.000000 670.980774,340.000000 675.614624,340.000000 
	C675.614624,328.585449 675.614624,317.891296 675.614624,306.604309 
	C664.579773,306.604309 653.932007,306.604309 642.638672,306.604309 
	C642.638672,317.682800 642.638672,328.658630 642.638672,340.000000 
	C648.595886,340.000000 654.546570,340.000000 661.495850,340.000000 
M802.495850,305.000000 
	C807.241699,305.000000 811.987610,305.000000 816.592529,305.000000 
	C816.592529,293.573547 816.592529,282.877075 816.592529,272.274658 
	C805.273254,272.274658 794.363464,272.274658 783.319092,272.274658 
	C783.319092,283.245209 783.319092,293.938904 783.319092,305.000000 
	C789.588013,305.000000 795.542603,305.000000 802.495850,305.000000 
z"/>
<path fill="#15E600" opacity="1.000000" stroke="none" 
	d="
M571.035522,60.033348 
	C571.020996,48.378899 571.006409,36.724449 570.979614,24.612270 
	C582.679321,24.111061 594.391296,24.067581 606.567871,24.089352 
	C607.032471,35.906242 607.032471,47.657883 607.032471,59.992901 
	C595.032593,59.992901 583.469971,59.992901 571.453857,59.996063 
	C571.000305,59.999222 571.035522,60.033348 571.035522,60.033348 
z"/>
<path fill="#15E600" opacity="1.000000" stroke="none" 
	d="
M570.983276,59.981625 
	C570.966187,71.765495 570.966187,83.566956 570.966187,95.877487 
	C559.640625,96.388771 548.626953,96.885986 537.219055,97.400993 
	C537.219055,108.642555 537.219055,119.909691 537.219055,131.548737 
	C525.497192,132.061340 514.149475,132.557571 502.401184,133.071320 
	C502.401184,144.225784 502.401184,155.277725 502.401184,166.912354 
	C513.715149,166.912354 525.103943,166.912354 536.740723,166.912354 
	C536.740723,178.747955 536.740723,190.008911 536.740723,202.280273 
	C525.388611,202.280273 514.055847,202.280273 502.625336,202.280273 
	C499.740601,214.675522 501.312378,226.296341 501.056030,237.812943 
	C500.800568,249.289795 501.000000,260.776794 501.000000,272.835419 
	C489.698181,272.835419 478.641205,272.835419 467.194031,272.835419 
	C467.194031,284.334167 467.194031,295.268616 467.194031,306.599243 
	C443.085388,306.599243 419.373016,306.599243 395.080444,306.599243 
	C395.080444,295.277435 395.080444,283.888672 395.080444,272.110046 
	C382.912323,272.110046 371.312286,272.110046 359.139648,272.110046 
	C359.139648,260.338501 359.139648,248.949051 359.139648,237.169220 
	C347.306030,237.169220 336.039398,237.169220 324.622498,237.169220 
	C324.622498,213.430832 324.622498,190.096451 324.622498,166.185730 
	C336.279327,166.185730 347.337708,166.185730 358.784729,166.185730 
	C358.784729,154.020248 358.784729,142.419724 358.784729,130.244919 
	C370.884644,130.244919 382.609741,130.244919 394.902252,130.244919 
	C394.902252,118.295311 394.902252,106.906410 394.902252,95.127289 
	C406.736481,95.127289 418.003448,95.127289 429.843140,95.127289 
	C429.843140,83.356247 429.843140,71.966621 429.843140,60.293827 
	C442.011475,60.293827 453.607544,60.293827 465.783997,60.293827 
	C465.783997,71.582520 465.783997,82.972504 465.783997,94.676575 
	C477.072540,94.676575 487.785645,94.676575 498.900146,94.676575 
	C498.900146,72.566116 498.900146,50.635891 498.900146,27.854664 
	C511.951324,27.854664 524.623108,27.854664 537.614563,27.854664 
	C538.085999,37.956608 538.584717,48.644276 539.114990,60.006699 
	C549.565002,60.006699 559.829407,60.006699 570.564697,60.020023 
	C571.035522,60.033348 571.000305,59.999222 570.983276,59.981625 
M430.075623,202.135986 
	C418.487396,202.135986 406.899170,202.135986 395.414307,202.135986 
	C395.414307,213.738708 395.414307,224.785492 395.414307,235.692047 
	C407.091949,235.692047 418.353363,235.692047 430.795319,235.692047 
	C430.795319,224.498596 430.795319,213.602310 430.075623,202.135986 
M465.000000,113.500000 
	C465.000000,107.752716 465.000000,102.005440 465.000000,96.406563 
	C453.242065,96.406563 442.212585,96.406563 431.273743,96.406563 
	C431.273743,108.058075 431.273743,119.301170 431.273743,130.681854 
	C442.576538,130.681854 453.603546,130.681854 465.000000,130.681854 
	C465.000000,125.079720 465.000000,119.789223 465.000000,113.500000 
M386.428223,167.000000 
	C378.133606,167.000000 369.838959,167.000000 360.774597,167.000000 
	C360.774597,178.522659 360.774597,189.632309 360.774597,200.728149 
	C371.691559,200.728149 382.615662,200.728149 393.662109,200.728149 
	C393.662109,189.412613 393.662109,178.371338 393.662109,167.000000 
	C391.353516,167.000000 389.380096,167.000000 386.428223,167.000000 
M430.000000,149.497787 
	C430.000000,143.751007 430.000000,138.004242 430.000000,132.406006 
	C418.242035,132.406006 407.213135,132.406006 396.274231,132.406006 
	C396.274231,143.391205 396.274231,153.968384 396.274231,165.000000 
	C401.983521,165.000000 407.429016,165.000000 412.874512,165.000000 
	C418.462494,165.000000 424.050446,165.000000 429.431885,165.000000 
	C429.736298,164.064407 429.918457,163.761627 429.921295,163.457169 
	C429.961792,159.136780 429.977936,154.816132 430.000000,149.497787 
z"/>
</svg>